<svg width="181" height="58" viewBox="0 0 181 58" fill="none" xmlns="http://www.w3.org/2000/svg">
<rect x="10" y="43" width="11" height="169" transform="rotate(-90 10 43)" fill="#C4C4C4" fill-opacity="0.25"/>
<path d="M5.947 43V42.829H10.127V14.671H7.125C6.07367 14.671 5.168 14.899 4.408 15.355C3.66067 15.7983 3.04 16.419 2.546 17.217C2.052 18.015 1.672 18.946 1.406 20.01C1.14 21.0613 0.962667 22.1887 0.874 23.392H0.703V14.5H24.51V23.392H24.339C24.2503 22.1887 24.073 21.0613 23.807 20.01C23.541 18.946 23.161 18.015 22.667 17.217C22.173 16.419 21.546 15.7983 20.786 15.355C20.0387 14.899 19.1393 14.671 18.088 14.671H15.105V42.829H19.285V43H5.947ZM35.8753 43.38C34.1526 43.38 32.6009 43.0253 31.2203 42.316C29.8523 41.594 28.7629 40.5553 27.9523 39.2C27.1543 37.8447 26.7553 36.198 26.7553 34.26C26.7553 32.322 27.1416 30.6753 27.9143 29.32C28.6996 27.9647 29.7699 26.9323 31.1253 26.223C32.4806 25.501 34.0259 25.14 35.7613 25.14C37.6359 25.14 39.1686 25.52 40.3593 26.28C41.5626 27.0273 42.4493 28.009 43.0193 29.225C43.5893 30.441 43.8743 31.7393 43.8743 33.12H29.3203V32.949H38.8773C38.8773 32.151 38.8456 31.315 38.7823 30.441C38.7189 29.5543 38.5796 28.7247 38.3643 27.952C38.1616 27.1667 37.8513 26.5333 37.4333 26.052C37.0153 25.558 36.4579 25.311 35.7613 25.311C34.9886 25.311 34.3489 25.558 33.8423 26.052C33.3483 26.546 32.9556 27.211 32.6643 28.047C32.3856 28.883 32.1829 29.8203 32.0563 30.859C31.9423 31.885 31.8853 32.9427 31.8853 34.032C31.8853 35.1973 31.9486 36.3247 32.0753 37.414C32.2146 38.5033 32.4489 39.4723 32.7783 40.321C33.1203 41.1697 33.5953 41.8473 34.2033 42.354C34.8113 42.848 35.5839 43.095 36.5213 43.095C38.3833 43.095 39.9349 42.5693 41.1763 41.518C42.4303 40.4667 43.2916 39.162 43.7603 37.604H43.9313C43.4373 39.2507 42.5253 40.625 41.1953 41.727C39.8779 42.829 38.1046 43.38 35.8753 43.38ZM46.1647 43V42.829L56.5387 25.691H53.2137C51.9217 25.691 50.864 25.957 50.0407 26.489C49.23 27.0083 48.6093 27.7493 48.1787 28.712C47.7607 29.662 47.4947 30.7767 47.3807 32.056H47.2097V25.52H61.8207V25.691L51.3897 42.829H55.5317C56.7223 42.829 57.7293 42.696 58.5527 42.43C59.376 42.164 60.041 41.7523 60.5477 41.195C61.067 40.6377 61.4597 39.9283 61.7257 39.067C61.9917 38.2057 62.169 37.186 62.2577 36.008H62.4287V43H46.1647ZM87.2079 43.38L76.6439 14.5H81.6409L89.7159 36.198L97.3729 14.5H97.5439L87.3979 43.38H87.2079ZM76.7199 14.5V42.829H79.6459V43H73.8129V42.829H76.5489V14.671H73.6229V14.5H76.7199ZM105.125 14.5V14.671H102.465V42.829H105.125V43H94.4279V42.829H97.4869V14.5H105.125ZM116.477 43.38C114.754 43.38 113.202 43.0253 111.822 42.316C110.454 41.594 109.364 40.5553 108.554 39.2C107.756 37.8447 107.357 36.198 107.357 34.26C107.357 32.322 107.743 30.6753 108.516 29.32C109.301 27.9647 110.371 26.9323 111.727 26.223C113.082 25.501 114.627 25.14 116.363 25.14C118.237 25.14 119.77 25.52 120.961 26.28C122.164 27.0273 123.051 28.009 123.621 29.225C124.191 30.441 124.476 31.7393 124.476 33.12H109.922V32.949H119.479C119.479 32.151 119.447 31.315 119.384 30.441C119.32 29.5543 119.181 28.7247 118.966 27.952C118.763 27.1667 118.453 26.5333 118.035 26.052C117.617 25.558 117.059 25.311 116.363 25.311C115.59 25.311 114.95 25.558 114.444 26.052C113.95 26.546 113.557 27.211 113.266 28.047C112.987 28.883 112.784 29.8203 112.658 30.859C112.544 31.885 112.487 32.9427 112.487 34.032C112.487 35.1973 112.55 36.3247 112.677 37.414C112.816 38.5033 113.05 39.4723 113.38 40.321C113.722 41.1697 114.197 41.8473 114.805 42.354C115.413 42.848 116.185 43.095 117.123 43.095C118.985 43.095 120.536 42.5693 121.778 41.518C123.032 40.4667 123.893 39.162 124.362 37.604H124.533C124.039 39.2507 123.127 40.625 121.797 41.727C120.479 42.829 118.706 43.38 116.477 43.38ZM133.891 25.52V42.829H135.905V43H126.937V42.829H129.35V25.691H126.937V25.52H133.891ZM144.74 30.878V42.829H146.754V43H138.185V42.829H140.18V31.087C140.18 30.023 140.142 29.1047 140.066 28.332C139.99 27.5467 139.819 26.945 139.553 26.527C139.287 26.0963 138.876 25.881 138.318 25.881C137.419 25.881 136.678 26.1597 136.095 26.717C135.525 27.2743 135.076 27.9963 134.746 28.883C134.43 29.757 134.208 30.6943 134.081 31.695C133.955 32.683 133.891 33.6203 133.891 34.507L133.777 34.64C133.777 33.7153 133.834 32.7083 133.948 31.619C134.075 30.5297 134.328 29.4973 134.708 28.522C135.101 27.534 135.69 26.7233 136.475 26.09C137.261 25.4567 138.306 25.14 139.61 25.14C140.902 25.14 141.922 25.387 142.669 25.881C143.417 26.375 143.949 27.059 144.265 27.933C144.582 28.7943 144.74 29.776 144.74 30.878ZM155.57 30.878V42.829H157.964V43H148.996V42.829H151.01V31.087C151.01 30.023 150.966 29.1047 150.877 28.332C150.801 27.5467 150.63 26.945 150.364 26.527C150.098 26.0963 149.687 25.881 149.129 25.881C148.23 25.881 147.489 26.1597 146.906 26.717C146.336 27.2743 145.893 27.9963 145.576 28.883C145.272 29.757 145.057 30.6943 144.93 31.695C144.804 32.683 144.74 33.6203 144.74 34.507L144.607 34.64C144.607 33.7153 144.664 32.7083 144.778 31.619C144.905 30.5297 145.158 29.4973 145.538 28.522C145.918 27.534 146.495 26.7233 147.267 26.09C148.053 25.4567 149.104 25.14 150.421 25.14C151.713 25.14 152.733 25.387 153.48 25.881C154.24 26.375 154.779 27.059 155.095 27.933C155.412 28.7943 155.57 29.776 155.57 30.878ZM169.56 43.38C167.698 43.38 166.09 42.962 164.734 42.126C163.379 41.29 162.334 40.1817 161.599 38.801C160.865 37.4203 160.497 35.9067 160.497 34.26C160.497 32.6133 160.865 31.0997 161.599 29.719C162.334 28.3383 163.379 27.23 164.734 26.394C166.09 25.558 167.698 25.14 169.56 25.14C171.422 25.14 173.025 25.558 174.367 26.394C175.723 27.23 176.761 28.3383 177.483 29.719C178.218 31.0997 178.585 32.6133 178.585 34.26C178.585 35.9067 178.218 37.4203 177.483 38.801C176.761 40.1817 175.723 41.29 174.367 42.126C173.025 42.962 171.422 43.38 169.56 43.38ZM169.56 43.209C170.384 43.209 171.061 42.943 171.593 42.411C172.125 41.879 172.537 41.176 172.828 40.302C173.12 39.4153 173.316 38.4463 173.417 37.395C173.531 36.331 173.588 35.286 173.588 34.26C173.588 33.2213 173.531 32.1763 173.417 31.125C173.316 30.0737 173.12 29.111 172.828 28.237C172.537 27.3503 172.125 26.641 171.593 26.109C171.061 25.577 170.384 25.311 169.56 25.311C168.724 25.311 168.04 25.577 167.508 26.109C166.976 26.641 166.565 27.3503 166.273 28.237C165.995 29.111 165.798 30.0737 165.684 31.125C165.57 32.1763 165.513 33.2213 165.513 34.26C165.513 35.286 165.57 36.331 165.684 37.395C165.798 38.4463 165.995 39.4153 166.273 40.302C166.565 41.176 166.976 41.879 167.508 42.411C168.04 42.943 168.724 43.209 169.56 43.209Z" fill="#707594"/>
</svg>
